<mxfile host="Electron" modified="2023-04-15T11:20:24.847Z" agent="Mozilla/5.0 (Windows NT 10.0; Win64; x64) AppleWebKit/537.36 (KHTML, like Gecko) draw.io/21.1.2 Chrome/106.0.5249.199 Electron/21.4.3 Safari/537.36" etag="ldXwksQEU5tMifWjPT67" version="21.1.2" type="device">
  <diagram name="Pagina-1" id="NqAV-8EwlfMAQxp9Xdhv">
    <mxGraphModel dx="1674" dy="844" grid="1" gridSize="10" guides="1" tooltips="1" connect="1" arrows="1" fold="1" page="1" pageScale="1" pageWidth="827" pageHeight="1169" math="0" shadow="0">
      <root>
        <mxCell id="0" />
        <mxCell id="1" parent="0" />
        <mxCell id="rPyU1mSmYRQaT8EzdGcs-1" value="INIZIO" style="ellipse;whiteSpace=wrap;html=1;" vertex="1" parent="1">
          <mxGeometry x="240" y="80" width="120" height="80" as="geometry" />
        </mxCell>
        <mxCell id="rPyU1mSmYRQaT8EzdGcs-2" value="" style="endArrow=classic;html=1;rounded=0;exitX=0.5;exitY=1;exitDx=0;exitDy=0;entryX=0.5;entryY=0;entryDx=0;entryDy=0;" edge="1" parent="1" source="rPyU1mSmYRQaT8EzdGcs-1" target="rPyU1mSmYRQaT8EzdGcs-3">
          <mxGeometry width="50" height="50" relative="1" as="geometry">
            <mxPoint x="380" y="450" as="sourcePoint" />
            <mxPoint x="300" y="200" as="targetPoint" />
          </mxGeometry>
        </mxCell>
        <mxCell id="rPyU1mSmYRQaT8EzdGcs-3" value="termina = false" style="rounded=0;whiteSpace=wrap;html=1;" vertex="1" parent="1">
          <mxGeometry x="240" y="200" width="120" height="60" as="geometry" />
        </mxCell>
        <mxCell id="rPyU1mSmYRQaT8EzdGcs-4" value="" style="endArrow=classic;html=1;rounded=0;exitX=0.5;exitY=1;exitDx=0;exitDy=0;entryX=0.5;entryY=0;entryDx=0;entryDy=0;" edge="1" parent="1" source="rPyU1mSmYRQaT8EzdGcs-3" target="rPyU1mSmYRQaT8EzdGcs-5">
          <mxGeometry width="50" height="50" relative="1" as="geometry">
            <mxPoint x="380" y="450" as="sourcePoint" />
            <mxPoint x="380" y="350" as="targetPoint" />
          </mxGeometry>
        </mxCell>
        <mxCell id="rPyU1mSmYRQaT8EzdGcs-5" value="" style="ellipse;whiteSpace=wrap;html=1;aspect=fixed;" vertex="1" parent="1">
          <mxGeometry x="285" y="310" width="30" height="30" as="geometry" />
        </mxCell>
        <mxCell id="rPyU1mSmYRQaT8EzdGcs-6" value="int x, y, z" style="shape=parallelogram;perimeter=parallelogramPerimeter;whiteSpace=wrap;html=1;fixedSize=1;" vertex="1" parent="1">
          <mxGeometry x="240" y="380" width="120" height="60" as="geometry" />
        </mxCell>
        <mxCell id="rPyU1mSmYRQaT8EzdGcs-7" value="" style="endArrow=classic;html=1;rounded=0;exitX=0.5;exitY=1;exitDx=0;exitDy=0;entryX=0.5;entryY=0;entryDx=0;entryDy=0;" edge="1" parent="1" source="rPyU1mSmYRQaT8EzdGcs-5" target="rPyU1mSmYRQaT8EzdGcs-6">
          <mxGeometry width="50" height="50" relative="1" as="geometry">
            <mxPoint x="380" y="450" as="sourcePoint" />
            <mxPoint x="430" y="400" as="targetPoint" />
          </mxGeometry>
        </mxCell>
        <mxCell id="rPyU1mSmYRQaT8EzdGcs-8" value="determinaTriangolo(x, y, z)" style="rounded=0;whiteSpace=wrap;html=1;" vertex="1" parent="1">
          <mxGeometry x="225" y="500" width="150" height="60" as="geometry" />
        </mxCell>
        <mxCell id="rPyU1mSmYRQaT8EzdGcs-9" value="" style="endArrow=classic;html=1;rounded=0;exitX=0.5;exitY=1;exitDx=0;exitDy=0;entryX=0.5;entryY=0;entryDx=0;entryDy=0;" edge="1" parent="1" source="rPyU1mSmYRQaT8EzdGcs-6" target="rPyU1mSmYRQaT8EzdGcs-8">
          <mxGeometry width="50" height="50" relative="1" as="geometry">
            <mxPoint x="380" y="450" as="sourcePoint" />
            <mxPoint x="430" y="400" as="targetPoint" />
          </mxGeometry>
        </mxCell>
        <mxCell id="rPyU1mSmYRQaT8EzdGcs-10" value="int scelta" style="shape=parallelogram;perimeter=parallelogramPerimeter;whiteSpace=wrap;html=1;fixedSize=1;" vertex="1" parent="1">
          <mxGeometry x="240" y="610" width="120" height="60" as="geometry" />
        </mxCell>
        <mxCell id="rPyU1mSmYRQaT8EzdGcs-11" value="" style="endArrow=classic;html=1;rounded=0;exitX=0.5;exitY=1;exitDx=0;exitDy=0;entryX=0.5;entryY=0;entryDx=0;entryDy=0;" edge="1" parent="1" source="rPyU1mSmYRQaT8EzdGcs-8" target="rPyU1mSmYRQaT8EzdGcs-10">
          <mxGeometry width="50" height="50" relative="1" as="geometry">
            <mxPoint x="380" y="550" as="sourcePoint" />
            <mxPoint x="430" y="500" as="targetPoint" />
          </mxGeometry>
        </mxCell>
        <mxCell id="rPyU1mSmYRQaT8EzdGcs-12" value="scelta == 1" style="rhombus;whiteSpace=wrap;html=1;" vertex="1" parent="1">
          <mxGeometry x="260" y="710" width="80" height="80" as="geometry" />
        </mxCell>
        <mxCell id="rPyU1mSmYRQaT8EzdGcs-13" value="" style="endArrow=classic;html=1;rounded=0;exitX=0.5;exitY=1;exitDx=0;exitDy=0;entryX=0.5;entryY=0;entryDx=0;entryDy=0;" edge="1" parent="1" source="rPyU1mSmYRQaT8EzdGcs-10" target="rPyU1mSmYRQaT8EzdGcs-12">
          <mxGeometry width="50" height="50" relative="1" as="geometry">
            <mxPoint x="380" y="650" as="sourcePoint" />
            <mxPoint x="430" y="600" as="targetPoint" />
          </mxGeometry>
        </mxCell>
        <mxCell id="rPyU1mSmYRQaT8EzdGcs-14" value="" style="endArrow=classic;html=1;rounded=0;exitX=1;exitY=0.5;exitDx=0;exitDy=0;entryX=0.5;entryY=0;entryDx=0;entryDy=0;" edge="1" parent="1" source="rPyU1mSmYRQaT8EzdGcs-12" target="rPyU1mSmYRQaT8EzdGcs-16">
          <mxGeometry width="50" height="50" relative="1" as="geometry">
            <mxPoint x="380" y="750" as="sourcePoint" />
            <mxPoint x="440" y="770" as="targetPoint" />
            <Array as="points">
              <mxPoint x="435" y="750" />
            </Array>
          </mxGeometry>
        </mxCell>
        <mxCell id="rPyU1mSmYRQaT8EzdGcs-15" value="TRUE" style="edgeLabel;html=1;align=center;verticalAlign=middle;resizable=0;points=[];" vertex="1" connectable="0" parent="rPyU1mSmYRQaT8EzdGcs-14">
          <mxGeometry x="-0.4615" relative="1" as="geometry">
            <mxPoint x="1" as="offset" />
          </mxGeometry>
        </mxCell>
        <mxCell id="rPyU1mSmYRQaT8EzdGcs-16" value="termina = false" style="rounded=0;whiteSpace=wrap;html=1;" vertex="1" parent="1">
          <mxGeometry x="375" y="790" width="120" height="60" as="geometry" />
        </mxCell>
        <mxCell id="rPyU1mSmYRQaT8EzdGcs-17" value="" style="endArrow=classic;html=1;rounded=0;exitX=0;exitY=0.5;exitDx=0;exitDy=0;entryX=0.5;entryY=0;entryDx=0;entryDy=0;" edge="1" parent="1" source="rPyU1mSmYRQaT8EzdGcs-12" target="rPyU1mSmYRQaT8EzdGcs-19">
          <mxGeometry width="50" height="50" relative="1" as="geometry">
            <mxPoint x="380" y="950" as="sourcePoint" />
            <mxPoint x="210" y="860" as="targetPoint" />
            <Array as="points">
              <mxPoint x="190" y="750" />
            </Array>
          </mxGeometry>
        </mxCell>
        <mxCell id="rPyU1mSmYRQaT8EzdGcs-18" value="FALSE" style="edgeLabel;html=1;align=center;verticalAlign=middle;resizable=0;points=[];" vertex="1" connectable="0" parent="rPyU1mSmYRQaT8EzdGcs-17">
          <mxGeometry x="-0.526" relative="1" as="geometry">
            <mxPoint as="offset" />
          </mxGeometry>
        </mxCell>
        <mxCell id="rPyU1mSmYRQaT8EzdGcs-19" value="scelta == 2" style="rhombus;whiteSpace=wrap;html=1;" vertex="1" parent="1">
          <mxGeometry x="150" y="840" width="80" height="80" as="geometry" />
        </mxCell>
        <mxCell id="rPyU1mSmYRQaT8EzdGcs-20" value="" style="endArrow=classic;html=1;rounded=0;exitX=1;exitY=0.5;exitDx=0;exitDy=0;entryX=0.5;entryY=0;entryDx=0;entryDy=0;" edge="1" parent="1" source="rPyU1mSmYRQaT8EzdGcs-19" target="rPyU1mSmYRQaT8EzdGcs-22">
          <mxGeometry width="50" height="50" relative="1" as="geometry">
            <mxPoint x="380" y="950" as="sourcePoint" />
            <mxPoint x="430" y="900" as="targetPoint" />
            <Array as="points">
              <mxPoint x="300" y="880" />
            </Array>
          </mxGeometry>
        </mxCell>
        <mxCell id="rPyU1mSmYRQaT8EzdGcs-21" value="TRUE" style="edgeLabel;html=1;align=center;verticalAlign=middle;resizable=0;points=[];" vertex="1" connectable="0" parent="rPyU1mSmYRQaT8EzdGcs-20">
          <mxGeometry x="-0.6188" y="-1" relative="1" as="geometry">
            <mxPoint as="offset" />
          </mxGeometry>
        </mxCell>
        <mxCell id="rPyU1mSmYRQaT8EzdGcs-22" value="termina = true" style="rounded=0;whiteSpace=wrap;html=1;" vertex="1" parent="1">
          <mxGeometry x="240" y="920" width="120" height="60" as="geometry" />
        </mxCell>
        <mxCell id="rPyU1mSmYRQaT8EzdGcs-23" value="" style="endArrow=classic;html=1;rounded=0;exitX=0;exitY=0.5;exitDx=0;exitDy=0;entryX=0.5;entryY=0;entryDx=0;entryDy=0;" edge="1" parent="1" source="rPyU1mSmYRQaT8EzdGcs-19" target="rPyU1mSmYRQaT8EzdGcs-25">
          <mxGeometry width="50" height="50" relative="1" as="geometry">
            <mxPoint x="380" y="950" as="sourcePoint" />
            <mxPoint x="80" y="990" as="targetPoint" />
            <Array as="points">
              <mxPoint x="90" y="880" />
            </Array>
          </mxGeometry>
        </mxCell>
        <mxCell id="rPyU1mSmYRQaT8EzdGcs-24" value="FALSE" style="edgeLabel;html=1;align=center;verticalAlign=middle;resizable=0;points=[];" vertex="1" connectable="0" parent="rPyU1mSmYRQaT8EzdGcs-23">
          <mxGeometry x="-0.5788" relative="1" as="geometry">
            <mxPoint x="-1" as="offset" />
          </mxGeometry>
        </mxCell>
        <mxCell id="rPyU1mSmYRQaT8EzdGcs-25" value="inserimento errato" style="shape=parallelogram;perimeter=parallelogramPerimeter;whiteSpace=wrap;html=1;fixedSize=1;" vertex="1" parent="1">
          <mxGeometry x="30" y="920" width="120" height="60" as="geometry" />
        </mxCell>
        <mxCell id="rPyU1mSmYRQaT8EzdGcs-26" value="" style="endArrow=classic;html=1;rounded=0;exitX=0.5;exitY=1;exitDx=0;exitDy=0;entryX=0;entryY=0.5;entryDx=0;entryDy=0;" edge="1" parent="1" source="rPyU1mSmYRQaT8EzdGcs-25" target="rPyU1mSmYRQaT8EzdGcs-27">
          <mxGeometry width="50" height="50" relative="1" as="geometry">
            <mxPoint x="330" y="1050" as="sourcePoint" />
            <mxPoint x="110" y="1040" as="targetPoint" />
            <Array as="points">
              <mxPoint x="90" y="1030" />
            </Array>
          </mxGeometry>
        </mxCell>
        <mxCell id="rPyU1mSmYRQaT8EzdGcs-27" value="" style="ellipse;whiteSpace=wrap;html=1;aspect=fixed;" vertex="1" parent="1">
          <mxGeometry x="178.75" y="1020" width="22.5" height="22.5" as="geometry" />
        </mxCell>
        <mxCell id="rPyU1mSmYRQaT8EzdGcs-28" value="" style="endArrow=classic;html=1;rounded=0;exitX=0.5;exitY=1;exitDx=0;exitDy=0;entryX=1;entryY=0.5;entryDx=0;entryDy=0;" edge="1" parent="1" source="rPyU1mSmYRQaT8EzdGcs-22" target="rPyU1mSmYRQaT8EzdGcs-27">
          <mxGeometry width="50" height="50" relative="1" as="geometry">
            <mxPoint x="330" y="1150" as="sourcePoint" />
            <mxPoint x="380" y="1100" as="targetPoint" />
            <Array as="points">
              <mxPoint x="300" y="1030" />
            </Array>
          </mxGeometry>
        </mxCell>
        <mxCell id="rPyU1mSmYRQaT8EzdGcs-29" value="" style="endArrow=classic;html=1;rounded=0;exitX=0.5;exitY=1;exitDx=0;exitDy=0;entryX=0;entryY=0.5;entryDx=0;entryDy=0;" edge="1" parent="1" source="rPyU1mSmYRQaT8EzdGcs-27" target="rPyU1mSmYRQaT8EzdGcs-31">
          <mxGeometry width="50" height="50" relative="1" as="geometry">
            <mxPoint x="330" y="1150" as="sourcePoint" />
            <mxPoint x="210" y="1100" as="targetPoint" />
            <Array as="points">
              <mxPoint x="190" y="1090" />
            </Array>
          </mxGeometry>
        </mxCell>
        <mxCell id="rPyU1mSmYRQaT8EzdGcs-30" value="" style="endArrow=classic;html=1;rounded=0;exitX=0.5;exitY=1;exitDx=0;exitDy=0;entryX=1;entryY=0.5;entryDx=0;entryDy=0;" edge="1" parent="1" source="rPyU1mSmYRQaT8EzdGcs-16" target="rPyU1mSmYRQaT8EzdGcs-31">
          <mxGeometry width="50" height="50" relative="1" as="geometry">
            <mxPoint x="330" y="1150" as="sourcePoint" />
            <mxPoint x="380" y="1100" as="targetPoint" />
            <Array as="points">
              <mxPoint x="435" y="1090" />
            </Array>
          </mxGeometry>
        </mxCell>
        <mxCell id="rPyU1mSmYRQaT8EzdGcs-31" value="" style="ellipse;whiteSpace=wrap;html=1;aspect=fixed;" vertex="1" parent="1">
          <mxGeometry x="290" y="1080" width="20" height="20" as="geometry" />
        </mxCell>
        <mxCell id="rPyU1mSmYRQaT8EzdGcs-32" value="" style="endArrow=classic;html=1;rounded=0;exitX=0.5;exitY=1;exitDx=0;exitDy=0;entryX=0.5;entryY=0;entryDx=0;entryDy=0;" edge="1" parent="1" source="rPyU1mSmYRQaT8EzdGcs-31" target="rPyU1mSmYRQaT8EzdGcs-33">
          <mxGeometry width="50" height="50" relative="1" as="geometry">
            <mxPoint x="330" y="1150" as="sourcePoint" />
            <mxPoint x="280" y="1130" as="targetPoint" />
          </mxGeometry>
        </mxCell>
        <mxCell id="rPyU1mSmYRQaT8EzdGcs-33" value="termina == false" style="rhombus;whiteSpace=wrap;html=1;" vertex="1" parent="1">
          <mxGeometry x="260" y="1150" width="80" height="80" as="geometry" />
        </mxCell>
        <mxCell id="rPyU1mSmYRQaT8EzdGcs-34" value="" style="endArrow=classic;html=1;rounded=0;exitX=0;exitY=0.5;exitDx=0;exitDy=0;entryX=0;entryY=0.5;entryDx=0;entryDy=0;" edge="1" parent="1" source="rPyU1mSmYRQaT8EzdGcs-33" target="rPyU1mSmYRQaT8EzdGcs-5">
          <mxGeometry width="50" height="50" relative="1" as="geometry">
            <mxPoint x="330" y="1140" as="sourcePoint" />
            <mxPoint x="130" y="650" as="targetPoint" />
            <Array as="points">
              <mxPoint x="10" y="1190" />
              <mxPoint x="20" y="325" />
            </Array>
          </mxGeometry>
        </mxCell>
        <mxCell id="rPyU1mSmYRQaT8EzdGcs-37" value="TRUE" style="edgeLabel;html=1;align=center;verticalAlign=middle;resizable=0;points=[];" vertex="1" connectable="0" parent="rPyU1mSmYRQaT8EzdGcs-34">
          <mxGeometry x="-0.9464" y="-1" relative="1" as="geometry">
            <mxPoint as="offset" />
          </mxGeometry>
        </mxCell>
        <mxCell id="rPyU1mSmYRQaT8EzdGcs-35" value="" style="endArrow=classic;html=1;rounded=0;exitX=0.5;exitY=1;exitDx=0;exitDy=0;entryX=0.5;entryY=0;entryDx=0;entryDy=0;" edge="1" parent="1" source="rPyU1mSmYRQaT8EzdGcs-33" target="rPyU1mSmYRQaT8EzdGcs-38">
          <mxGeometry width="50" height="50" relative="1" as="geometry">
            <mxPoint x="330" y="1040" as="sourcePoint" />
            <mxPoint x="300" y="1290" as="targetPoint" />
          </mxGeometry>
        </mxCell>
        <mxCell id="rPyU1mSmYRQaT8EzdGcs-36" value="FALSE" style="edgeLabel;html=1;align=center;verticalAlign=middle;resizable=0;points=[];" vertex="1" connectable="0" parent="rPyU1mSmYRQaT8EzdGcs-35">
          <mxGeometry x="-0.4529" relative="1" as="geometry">
            <mxPoint x="1" as="offset" />
          </mxGeometry>
        </mxCell>
        <mxCell id="rPyU1mSmYRQaT8EzdGcs-38" value="FINE" style="ellipse;whiteSpace=wrap;html=1;" vertex="1" parent="1">
          <mxGeometry x="240" y="1270" width="120" height="80" as="geometry" />
        </mxCell>
        <mxCell id="rPyU1mSmYRQaT8EzdGcs-39" value="" style="ellipse;whiteSpace=wrap;html=1;aspect=fixed;" vertex="1" parent="1">
          <mxGeometry x="830" y="400" width="30" height="30" as="geometry" />
        </mxCell>
        <mxCell id="rPyU1mSmYRQaT8EzdGcs-40" value="" style="endArrow=classic;html=1;rounded=0;exitX=0.5;exitY=1;exitDx=0;exitDy=0;" edge="1" parent="1" source="rPyU1mSmYRQaT8EzdGcs-39" target="rPyU1mSmYRQaT8EzdGcs-41">
          <mxGeometry width="50" height="50" relative="1" as="geometry">
            <mxPoint x="660" y="640" as="sourcePoint" />
            <mxPoint x="840" y="510" as="targetPoint" />
          </mxGeometry>
        </mxCell>
        <mxCell id="rPyU1mSmYRQaT8EzdGcs-41" value="x, y, z" style="shape=parallelogram;perimeter=parallelogramPerimeter;whiteSpace=wrap;html=1;fixedSize=1;" vertex="1" parent="1">
          <mxGeometry x="785" y="470" width="120" height="60" as="geometry" />
        </mxCell>
        <mxCell id="rPyU1mSmYRQaT8EzdGcs-42" value="((x &amp;lt; y + z) &amp;amp;&amp;amp; (y &amp;lt; x + z) &amp;amp;&amp;amp; (z &amp;lt; x + y))" style="rhombus;whiteSpace=wrap;html=1;" vertex="1" parent="1">
          <mxGeometry x="730" y="590" width="230" height="130" as="geometry" />
        </mxCell>
        <mxCell id="rPyU1mSmYRQaT8EzdGcs-43" value="" style="endArrow=classic;html=1;rounded=0;exitX=0.5;exitY=1;exitDx=0;exitDy=0;entryX=0.5;entryY=0;entryDx=0;entryDy=0;" edge="1" parent="1" source="rPyU1mSmYRQaT8EzdGcs-41" target="rPyU1mSmYRQaT8EzdGcs-42">
          <mxGeometry width="50" height="50" relative="1" as="geometry">
            <mxPoint x="800" y="740" as="sourcePoint" />
            <mxPoint x="850" y="690" as="targetPoint" />
          </mxGeometry>
        </mxCell>
        <mxCell id="rPyU1mSmYRQaT8EzdGcs-44" value="" style="endArrow=classic;html=1;rounded=0;exitX=1;exitY=0.5;exitDx=0;exitDy=0;entryX=0.5;entryY=0;entryDx=0;entryDy=0;" edge="1" parent="1" source="rPyU1mSmYRQaT8EzdGcs-42" target="rPyU1mSmYRQaT8EzdGcs-45">
          <mxGeometry width="50" height="50" relative="1" as="geometry">
            <mxPoint x="800" y="740" as="sourcePoint" />
            <mxPoint x="1020" y="740" as="targetPoint" />
            <Array as="points">
              <mxPoint x="1035" y="655" />
            </Array>
          </mxGeometry>
        </mxCell>
        <mxCell id="rPyU1mSmYRQaT8EzdGcs-46" value="TRUE" style="edgeLabel;html=1;align=center;verticalAlign=middle;resizable=0;points=[];" vertex="1" connectable="0" parent="rPyU1mSmYRQaT8EzdGcs-44">
          <mxGeometry x="-0.4953" y="-1" relative="1" as="geometry">
            <mxPoint as="offset" />
          </mxGeometry>
        </mxCell>
        <mxCell id="rPyU1mSmYRQaT8EzdGcs-45" value="(x == y || y == z || x == z)" style="rhombus;whiteSpace=wrap;html=1;" vertex="1" parent="1">
          <mxGeometry x="960" y="720" width="150" height="110" as="geometry" />
        </mxCell>
        <mxCell id="rPyU1mSmYRQaT8EzdGcs-47" value="isoscele" style="shape=parallelogram;perimeter=parallelogramPerimeter;whiteSpace=wrap;html=1;fixedSize=1;" vertex="1" parent="1">
          <mxGeometry x="1110" y="830" width="120" height="60" as="geometry" />
        </mxCell>
        <mxCell id="rPyU1mSmYRQaT8EzdGcs-48" value="" style="endArrow=classic;html=1;rounded=0;exitX=1;exitY=0.5;exitDx=0;exitDy=0;entryX=0.5;entryY=0;entryDx=0;entryDy=0;" edge="1" parent="1" source="rPyU1mSmYRQaT8EzdGcs-45" target="rPyU1mSmYRQaT8EzdGcs-47">
          <mxGeometry width="50" height="50" relative="1" as="geometry">
            <mxPoint x="990" y="740" as="sourcePoint" />
            <mxPoint x="1040" y="690" as="targetPoint" />
            <Array as="points">
              <mxPoint x="1170" y="775" />
            </Array>
          </mxGeometry>
        </mxCell>
        <mxCell id="rPyU1mSmYRQaT8EzdGcs-49" value="TRUE" style="edgeLabel;html=1;align=center;verticalAlign=middle;resizable=0;points=[];" vertex="1" connectable="0" parent="rPyU1mSmYRQaT8EzdGcs-48">
          <mxGeometry x="-0.5744" y="1" relative="1" as="geometry">
            <mxPoint as="offset" />
          </mxGeometry>
        </mxCell>
        <mxCell id="rPyU1mSmYRQaT8EzdGcs-50" value="" style="endArrow=classic;html=1;rounded=0;exitX=0;exitY=0.5;exitDx=0;exitDy=0;entryX=0.5;entryY=0;entryDx=0;entryDy=0;" edge="1" parent="1" source="rPyU1mSmYRQaT8EzdGcs-45" target="rPyU1mSmYRQaT8EzdGcs-52">
          <mxGeometry width="50" height="50" relative="1" as="geometry">
            <mxPoint x="990" y="740" as="sourcePoint" />
            <mxPoint x="860" y="850" as="targetPoint" />
            <Array as="points">
              <mxPoint x="900" y="775" />
            </Array>
          </mxGeometry>
        </mxCell>
        <mxCell id="rPyU1mSmYRQaT8EzdGcs-51" value="FALSE" style="edgeLabel;html=1;align=center;verticalAlign=middle;resizable=0;points=[];" vertex="1" connectable="0" parent="rPyU1mSmYRQaT8EzdGcs-50">
          <mxGeometry x="-0.5584" y="2" relative="1" as="geometry">
            <mxPoint as="offset" />
          </mxGeometry>
        </mxCell>
        <mxCell id="rPyU1mSmYRQaT8EzdGcs-52" value="(x == y &amp;amp;&amp;amp; y == z)" style="rhombus;whiteSpace=wrap;html=1;" vertex="1" parent="1">
          <mxGeometry x="840" y="830" width="120" height="90" as="geometry" />
        </mxCell>
        <mxCell id="rPyU1mSmYRQaT8EzdGcs-53" value="" style="endArrow=classic;html=1;rounded=0;exitX=1;exitY=0.5;exitDx=0;exitDy=0;entryX=0.5;entryY=0;entryDx=0;entryDy=0;" edge="1" parent="1" source="rPyU1mSmYRQaT8EzdGcs-52" target="rPyU1mSmYRQaT8EzdGcs-54">
          <mxGeometry width="50" height="50" relative="1" as="geometry">
            <mxPoint x="990" y="840" as="sourcePoint" />
            <mxPoint x="1010" y="910" as="targetPoint" />
            <Array as="points">
              <mxPoint x="1020" y="875" />
            </Array>
          </mxGeometry>
        </mxCell>
        <mxCell id="rPyU1mSmYRQaT8EzdGcs-55" value="TRUE" style="edgeLabel;html=1;align=center;verticalAlign=middle;resizable=0;points=[];" vertex="1" connectable="0" parent="rPyU1mSmYRQaT8EzdGcs-53">
          <mxGeometry x="-0.4745" y="-2" relative="1" as="geometry">
            <mxPoint as="offset" />
          </mxGeometry>
        </mxCell>
        <mxCell id="rPyU1mSmYRQaT8EzdGcs-54" value="equilatero" style="shape=parallelogram;perimeter=parallelogramPerimeter;whiteSpace=wrap;html=1;fixedSize=1;" vertex="1" parent="1">
          <mxGeometry x="960" y="920" width="120" height="60" as="geometry" />
        </mxCell>
        <mxCell id="rPyU1mSmYRQaT8EzdGcs-56" value="" style="endArrow=classic;html=1;rounded=0;exitX=0.5;exitY=1;exitDx=0;exitDy=0;entryX=1;entryY=0.5;entryDx=0;entryDy=0;" edge="1" parent="1" source="rPyU1mSmYRQaT8EzdGcs-54" target="rPyU1mSmYRQaT8EzdGcs-61">
          <mxGeometry width="50" height="50" relative="1" as="geometry">
            <mxPoint x="990" y="940" as="sourcePoint" />
            <mxPoint x="1030" y="1050" as="targetPoint" />
            <Array as="points">
              <mxPoint x="1020" y="1035" />
            </Array>
          </mxGeometry>
        </mxCell>
        <mxCell id="rPyU1mSmYRQaT8EzdGcs-57" value="" style="endArrow=classic;html=1;rounded=0;exitX=0;exitY=0.5;exitDx=0;exitDy=0;entryX=0.5;entryY=0;entryDx=0;entryDy=0;" edge="1" parent="1" source="rPyU1mSmYRQaT8EzdGcs-52" target="rPyU1mSmYRQaT8EzdGcs-59">
          <mxGeometry width="50" height="50" relative="1" as="geometry">
            <mxPoint x="990" y="940" as="sourcePoint" />
            <mxPoint x="810" y="970" as="targetPoint" />
            <Array as="points">
              <mxPoint x="780" y="875" />
            </Array>
          </mxGeometry>
        </mxCell>
        <mxCell id="rPyU1mSmYRQaT8EzdGcs-58" value="FALSE" style="edgeLabel;html=1;align=center;verticalAlign=middle;resizable=0;points=[];" vertex="1" connectable="0" parent="rPyU1mSmYRQaT8EzdGcs-57">
          <mxGeometry x="-0.3773" y="1" relative="1" as="geometry">
            <mxPoint as="offset" />
          </mxGeometry>
        </mxCell>
        <mxCell id="rPyU1mSmYRQaT8EzdGcs-59" value="scaleno" style="shape=parallelogram;perimeter=parallelogramPerimeter;whiteSpace=wrap;html=1;fixedSize=1;" vertex="1" parent="1">
          <mxGeometry x="720" y="920" width="120" height="60" as="geometry" />
        </mxCell>
        <mxCell id="rPyU1mSmYRQaT8EzdGcs-60" value="" style="endArrow=classic;html=1;rounded=0;exitX=0.5;exitY=1;exitDx=0;exitDy=0;entryX=0;entryY=0.5;entryDx=0;entryDy=0;" edge="1" parent="1" source="rPyU1mSmYRQaT8EzdGcs-59" target="rPyU1mSmYRQaT8EzdGcs-61">
          <mxGeometry width="50" height="50" relative="1" as="geometry">
            <mxPoint x="990" y="1040" as="sourcePoint" />
            <mxPoint x="780" y="1050" as="targetPoint" />
            <Array as="points">
              <mxPoint x="780" y="1035" />
            </Array>
          </mxGeometry>
        </mxCell>
        <mxCell id="rPyU1mSmYRQaT8EzdGcs-61" value="" style="ellipse;whiteSpace=wrap;html=1;aspect=fixed;" vertex="1" parent="1">
          <mxGeometry x="885" y="1020" width="30" height="30" as="geometry" />
        </mxCell>
        <mxCell id="rPyU1mSmYRQaT8EzdGcs-62" value="" style="endArrow=classic;html=1;rounded=0;exitX=0.5;exitY=1;exitDx=0;exitDy=0;entryX=1;entryY=0.5;entryDx=0;entryDy=0;" edge="1" parent="1" source="rPyU1mSmYRQaT8EzdGcs-47" target="rPyU1mSmYRQaT8EzdGcs-64">
          <mxGeometry width="50" height="50" relative="1" as="geometry">
            <mxPoint x="990" y="1040" as="sourcePoint" />
            <mxPoint x="1120" y="1030" as="targetPoint" />
            <Array as="points">
              <mxPoint x="1170" y="1093" />
            </Array>
          </mxGeometry>
        </mxCell>
        <mxCell id="rPyU1mSmYRQaT8EzdGcs-63" value="" style="endArrow=classic;html=1;rounded=0;exitX=0.5;exitY=1;exitDx=0;exitDy=0;entryX=0;entryY=0.5;entryDx=0;entryDy=0;" edge="1" parent="1" source="rPyU1mSmYRQaT8EzdGcs-61" target="rPyU1mSmYRQaT8EzdGcs-64">
          <mxGeometry width="50" height="50" relative="1" as="geometry">
            <mxPoint x="990" y="1040" as="sourcePoint" />
            <mxPoint x="880" y="1130" as="targetPoint" />
            <Array as="points">
              <mxPoint x="900" y="1093" />
            </Array>
          </mxGeometry>
        </mxCell>
        <mxCell id="rPyU1mSmYRQaT8EzdGcs-64" value="" style="ellipse;whiteSpace=wrap;html=1;aspect=fixed;" vertex="1" parent="1">
          <mxGeometry x="1022.5" y="1080" width="25" height="25" as="geometry" />
        </mxCell>
        <mxCell id="rPyU1mSmYRQaT8EzdGcs-65" value="" style="endArrow=classic;html=1;rounded=0;exitX=0;exitY=0.5;exitDx=0;exitDy=0;entryX=0.5;entryY=0;entryDx=0;entryDy=0;" edge="1" parent="1" source="rPyU1mSmYRQaT8EzdGcs-42" target="rPyU1mSmYRQaT8EzdGcs-66">
          <mxGeometry width="50" height="50" relative="1" as="geometry">
            <mxPoint x="840" y="1040" as="sourcePoint" />
            <mxPoint x="610" y="820" as="targetPoint" />
            <Array as="points">
              <mxPoint x="670" y="655" />
            </Array>
          </mxGeometry>
        </mxCell>
        <mxCell id="rPyU1mSmYRQaT8EzdGcs-67" value="FALSE" style="edgeLabel;html=1;align=center;verticalAlign=middle;resizable=0;points=[];" vertex="1" connectable="0" parent="rPyU1mSmYRQaT8EzdGcs-65">
          <mxGeometry x="-0.5853" y="-1" relative="1" as="geometry">
            <mxPoint x="-1" as="offset" />
          </mxGeometry>
        </mxCell>
        <mxCell id="rPyU1mSmYRQaT8EzdGcs-66" value="nessun triangolo" style="shape=parallelogram;perimeter=parallelogramPerimeter;whiteSpace=wrap;html=1;fixedSize=1;" vertex="1" parent="1">
          <mxGeometry x="610" y="720" width="120" height="60" as="geometry" />
        </mxCell>
        <mxCell id="rPyU1mSmYRQaT8EzdGcs-68" value="" style="endArrow=classic;html=1;rounded=0;exitX=0.5;exitY=1;exitDx=0;exitDy=0;entryX=1;entryY=0.5;entryDx=0;entryDy=0;" edge="1" parent="1" source="rPyU1mSmYRQaT8EzdGcs-64" target="rPyU1mSmYRQaT8EzdGcs-70">
          <mxGeometry width="50" height="50" relative="1" as="geometry">
            <mxPoint x="840" y="1140" as="sourcePoint" />
            <mxPoint x="1010" y="1170" as="targetPoint" />
            <Array as="points">
              <mxPoint x="1035" y="1144" />
            </Array>
          </mxGeometry>
        </mxCell>
        <mxCell id="rPyU1mSmYRQaT8EzdGcs-69" value="" style="endArrow=classic;html=1;rounded=0;exitX=0.5;exitY=1;exitDx=0;exitDy=0;entryX=0;entryY=0.5;entryDx=0;entryDy=0;" edge="1" parent="1" source="rPyU1mSmYRQaT8EzdGcs-66" target="rPyU1mSmYRQaT8EzdGcs-70">
          <mxGeometry width="50" height="50" relative="1" as="geometry">
            <mxPoint x="840" y="1140" as="sourcePoint" />
            <mxPoint x="670" y="1050" as="targetPoint" />
            <Array as="points">
              <mxPoint x="670" y="1144" />
            </Array>
          </mxGeometry>
        </mxCell>
        <mxCell id="rPyU1mSmYRQaT8EzdGcs-70" value="" style="ellipse;whiteSpace=wrap;html=1;aspect=fixed;" vertex="1" parent="1">
          <mxGeometry x="831.25" y="1130" width="27.5" height="27.5" as="geometry" />
        </mxCell>
        <mxCell id="rPyU1mSmYRQaT8EzdGcs-71" value="" style="endArrow=classic;html=1;rounded=0;exitX=0.5;exitY=1;exitDx=0;exitDy=0;" edge="1" parent="1" source="rPyU1mSmYRQaT8EzdGcs-70" target="rPyU1mSmYRQaT8EzdGcs-72">
          <mxGeometry width="50" height="50" relative="1" as="geometry">
            <mxPoint x="840" y="1140" as="sourcePoint" />
            <mxPoint x="845" y="1210" as="targetPoint" />
          </mxGeometry>
        </mxCell>
        <mxCell id="rPyU1mSmYRQaT8EzdGcs-72" value="" style="ellipse;whiteSpace=wrap;html=1;aspect=fixed;" vertex="1" parent="1">
          <mxGeometry x="827.5" y="1195" width="35" height="35" as="geometry" />
        </mxCell>
      </root>
    </mxGraphModel>
  </diagram>
</mxfile>
